<?xml version="1.0" encoding="UTF-8" standalone="no"?>
<!-- Generator: Adobe Illustrator 19.0.0, SVG Export Plug-In . SVG Version: 6.00 Build 0)  -->

<svg
   version="1.1"
   id="Layer_1"
   x="0px"
   y="0px"
   viewBox="0 0 496 496"
   style="enable-background:new 0 0 496 496;"
   xml:space="preserve"
   sodipodi:docname="add.svg"
   inkscape:export-filename="add.svg"
   inkscape:export-xdpi="5.8064518"
   inkscape:export-ydpi="5.8064518"
   inkscape:version="1.2 (1:1.2+202205241504+da316b6974)"
   xmlns:inkscape="http://www.inkscape.org/namespaces/inkscape"
   xmlns:sodipodi="http://sodipodi.sourceforge.net/DTD/sodipodi-0.dtd"
   xmlns="http://www.w3.org/2000/svg"
   xmlns:svg="http://www.w3.org/2000/svg"><defs
   id="defs173" /><sodipodi:namedview
   id="namedview171"
   pagecolor="#ffffff"
   bordercolor="#666666"
   borderopacity="1.0"
   inkscape:showpageshadow="2"
   inkscape:pageopacity="0.0"
   inkscape:pagecheckerboard="0"
   inkscape:deskcolor="#d1d1d1"
   showgrid="false"
   inkscape:zoom="0.67289194"
   inkscape:cx="293.50924"
   inkscape:cy="245.95331"
   inkscape:window-width="970"
   inkscape:window-height="704"
   inkscape:window-x="54"
   inkscape:window-y="27"
   inkscape:window-maximized="1"
   inkscape:current-layer="Layer_1" />
<path
   style="fill:#12b886;fill-opacity:1"
   d="M496,248c0,136.8-111.2,248-248,248S0,384.8,0,248S111.2,0,248,0S496,111.2,496,248z"
   id="path128" />
<path
   style="fill:#12b886;fill-opacity:1"
   d="M248,0c136.8,0,248,111.2,248,248S384.8,496,248,496"
   id="path130" />
<path
   style="fill:#12b886;fill-opacity:1"
   d="M72.8,72.8c96.8-96.8,253.6-96.8,350.4,0s96.8,253.6,0,350.4"
   id="path132" />
<g
   id="g138">
	<path
   style="fill:#ffffff;fill-opacity:1"
   d="M352.8,256H143.2c-6.4,0-12-1.6-12-8s5.6-8,12-8h209.6c6.4,0,12,1.6,12,8S359.2,256,352.8,256z"
   id="path134" />
	<path
   style="fill:#ffffff;fill-opacity:1"
   d="M248,364c-6.4,0-8-4.8-8-12V143.2c0-6.4,1.6-12,8-12s8,4.8,8,12v209.6C256,359.2,254.4,364,248,364z   "
   id="path136" />
</g>
<g
   id="g140">
</g>
<g
   id="g142">
</g>
<g
   id="g144">
</g>
<g
   id="g146">
</g>
<g
   id="g148">
</g>
<g
   id="g150">
</g>
<g
   id="g152">
</g>
<g
   id="g154">
</g>
<g
   id="g156">
</g>
<g
   id="g158">
</g>
<g
   id="g160">
</g>
<g
   id="g162">
</g>
<g
   id="g164">
</g>
<g
   id="g166">
</g>
<g
   id="g168">
</g>
</svg>
