<?xml version="1.0" encoding="UTF-8" standalone="no"?>
<!-- Generator: Adobe Illustrator 19.1.0, SVG Export Plug-In . SVG Version: 6.00 Build 0)  -->

<svg
   version="1.1"
   id="Capa_1"
   x="0px"
   y="0px"
   viewBox="0 0 385.99998 483.10001"
   xml:space="preserve"
   sodipodi:docname="shop-bag.svg"
   width="30.599998"
   height="30.310001"
   xmlns:inkscape="http://www.inkscape.org/namespaces/inkscape"
   xmlns:sodipodi="http://sodipodi.sourceforge.net/DTD/sodipodi-0.dtd"
   xmlns="http://www.w3.org/2000/svg"
   xmlns:svg="http://www.w3.org/2000/svg"><defs
   id="defs118" /><sodipodi:namedview
   id="namedview116"
   pagecolor="#ffffff"
   bordercolor="#666666"
   borderopacity="1.0"
   inkscape:showpageshadow="2"
   inkscape:pageopacity="0.0"
   inkscape:pagecheckerboard="0"
   inkscape:deskcolor="#d1d1d1"
   showgrid="false" />
<g
   id="g83"
   transform="translate(-48.548969)">
	<g
   id="g81"
   style="fill:#424242;fill-opacity:1">
		<path
   d="m 434.55,418.7 -27.8,-313.3 c -0.5,-6.2 -5.7,-10.9 -12,-10.9 h -58.6 C 336.05,42.4 293.65,0 241.55,0 c -52.1,0 -94.5,42.4 -94.6,94.5 h -58.6 c -6.2,0 -11.4,4.7 -12,10.9 l -27.8,313.3 c 0,0.4 0,0.7 0,1.1 0,34.9 32.1,63.3 71.5,63.3 h 243 c 39.4,0 71.5,-28.4 71.5,-63.3 0,-0.4 0,-0.7 0,-1.1 z M 241.55,24 c 38.9,0 70.5,31.6 70.6,70.5 h -141.2 c 0.1,-38.9 31.7,-70.5 70.6,-70.5 z m 121.5,435 h -243 c -26,0 -47.2,-17.3 -47.5,-38.8 l 26.8,-301.7 h 47.6 v 42.1 c 0,6.6 5.4,12 12,12 6.6,0 12,-5.4 12,-12 v -42.1 h 141.2 v 42.1 c 0,6.6 5.4,12 12,12 6.6,0 12,-5.4 12,-12 v -42.1 h 47.6 l 26.8,301.8 c -0.3,21.4 -21.5,38.7 -47.5,38.7 z"
   id="path77"
   style="fill:#424242;fill-opacity:1" />
		<path
   d="m 255.25,293.4 h -27.5 c -10,0 -18.1,-8.1 -18.1,-18.1 0,-10 8.1,-18.1 18.1,-18.1 h 48.4 c 6.6,0 12,-5.4 12,-12 0,-6.6 -5.4,-12 -12,-12 h -22.6 v -16.7 c 0,-6.6 -5.4,-12 -12,-12 -6.6,0 -12,5.4 -12,12 v 16.7 h -1.7 c -23.2,0 -42.1,18.9 -42.1,42.1 0,23.2 18.9,42.1 42.1,42.1 h 27.5 c 10,0 18.1,8.1 18.1,18.1 0,10 -8.1,18.1 -18.1,18.1 h -49.3 c -6.6,0 -12,5.4 -12,12 0,6.6 5.4,12 12,12 h 23.5 v 17.1 c 0,6.6 5.4,12 12,12 6.6,0 12,-5.4 12,-12 v -17.1 h 2 c 0.1,0 0.2,0 0.3,0 23,-0.3 41.5,-19.1 41.5,-42.1 0,-23.2 -18.9,-42.1 -42.1,-42.1 z"
   id="path79"
   style="fill:#424242;fill-opacity:1" />
	</g>
</g>















</svg>
