<?xml version="1.0" encoding="UTF-8" standalone="no"?>
<!-- Created with Inkscape (http://www.inkscape.org/) -->

<svg
   width="5.6839995mm"
   height="5.5599999mm"
   viewBox="0 0 11.684001 5.5599996"
   version="1.1"
   id="svg5"
   xml:space="preserve"
   inkscape:export-filename="shop-cart.svg"
   inkscape:export-xdpi="243.42746"
   inkscape:export-ydpi="243.42746"
   sodipodi:docname="shop-cart.svg"
   xmlns:inkscape="http://www.inkscape.org/namespaces/inkscape"
   xmlns:sodipodi="http://sodipodi.sourceforge.net/DTD/sodipodi-0.dtd"
   xmlns="http://www.w3.org/2000/svg"
   xmlns:svg="http://www.w3.org/2000/svg"><sodipodi:namedview
     id="namedview7"
     pagecolor="#ffffff"
     bordercolor="#666666"
     borderopacity="1.0"
     inkscape:showpageshadow="2"
     inkscape:pageopacity="0.0"
     inkscape:pagecheckerboard="0"
     inkscape:deskcolor="#d1d1d1"
     inkscape:document-units="mm"
     showgrid="false" /><defs
     id="defs2" /><g
     inkscape:label="Layer 1"
     inkscape:groupmode="layer"
     id="layer1"
     transform="translate(-93.376574,-69.450064)"><g
       id="g71"
       transform="matrix(0.26458333,0,0,0.26458333,93.308821,66.518808)"><g
         id="g15"
         style="fill:#fcfcfc;fill-opacity:1">
	<path
   style="fill:#fcfcfc;fill-opacity:1"
   d="M 44.16,6.6 H 11.592 L 10.66,1.179 H 2.408 C 1.076,1.179 0,2.257 0,3.588 v 2.408 h 6.602 l 4.248,24.709 c 0.094,0.544 0.617,0.985 1.17,0.985 h 28.527 c 1.332,0 2.41,-1.077 2.41,-2.411 V 26.873 H 15.078 l -0.587,-3.414 h 22.042 c 2.66,0 5.172,-2.128 5.611,-4.75 z"
   id="path9" />
	<circle
   style="fill:#fcfcfc;fill-opacity:1"
   cx="19.469999"
   cy="38.817001"
   r="4.165"
   id="circle11" />
	<path
   style="fill:#fcfcfc;fill-opacity:1"
   d="m 29.762,38.816 c 0,2.299 1.863,4.164 4.162,4.164 2.301,0 4.168,-1.865 4.168,-4.164 0,-2.299 -1.867,-4.166 -4.168,-4.166 -2.299,0 -4.162,1.868 -4.162,4.166 z"
   id="path13" />
</g><g
         id="g17">
</g><g
         id="g19">
</g><g
         id="g21">
</g><g
         id="g23">
</g><g
         id="g25">
</g><g
         id="g27">
</g><g
         id="g29">
</g><g
         id="g31">
</g><g
         id="g33">
</g><g
         id="g35">
</g><g
         id="g37">
</g><g
         id="g39">
</g><g
         id="g41">
</g><g
         id="g43">
</g><g
         id="g45">
</g></g></g></svg>
