<?xml version="1.0" encoding="UTF-8" standalone="no"?>
<!-- Created with Inkscape (http://www.inkscape.org/) -->

<svg
   width="9.4012222mm"
   height="11.142173mm"
   viewBox="0 0 100.777173 74.090744"
   version="1.1"
   id="svg5"
   xml:space="preserve"
   sodipodi:docname="trash.svg"
   xmlns:inkscape="http://www.inkscape.org/namespaces/inkscape"
   xmlns:sodipodi="http://sodipodi.sourceforge.net/DTD/sodipodi-0.dtd"
   xmlns="http://www.w3.org/2000/svg"
   xmlns:svg="http://www.w3.org/2000/svg"><sodipodi:namedview
     id="namedview7"
     pagecolor="#ffffff"
     bordercolor="#666666"
     borderopacity="1.0"
     inkscape:showpageshadow="2"
     inkscape:pageopacity="0.0"
     inkscape:pagecheckerboard="0"
     inkscape:deskcolor="#d1d1d1"
     inkscape:document-units="mm"
     showgrid="false" /><defs
     id="defs2" /><g
     inkscape:label="Layer 1"
     inkscape:groupmode="layer"
     id="layer1"
     transform="translate(-71.621355,-96.56266)"><g
       id="g200"
       transform="matrix(0.26458333,0,0,0.26458333,64.637029,96.56266)"><g
         id="g142">
	<path
   style="fill:#ccd0d2"
   d="m 39.379,70.007 v 192.519 c 0,9.661 7.841,17.502 17.502,17.502 h 166.266 c 9.661,0 17.502,-7.841 17.502,-17.502 V 70.007 Z"
   id="path132" />
	<path
   style="fill:#ccd0d2"
   d="m 100.635,0 h 78.758 c 9.661,0 17.502,7.841 17.502,17.502 v 17.502 h -17.502 v -8.751 c 0,-4.83 -3.912,-8.751 -8.751,-8.751 h -61.256 c -4.839,0 -8.751,3.92 -8.751,8.751 v 8.751 H 83.133 V 17.502 C 83.133,7.841 90.974,0 100.635,0 Z"
   id="path134" />
	<path
   style="fill:#aeb1b3"
   d="m 74.382,240.648 c 0,7.254 5.881,13.126 13.126,13.126 7.246,0 13.126,-5.872 13.126,-13.126 V 113.49 H 74.382 Z M 179.393,113.49 v 127.159 c 0,7.246 5.881,13.126 13.126,13.126 7.246,0 13.126,-5.881 13.126,-13.126 V 113.49 Z m -52.506,127.158 c 0,7.246 5.881,13.126 13.126,13.126 7.246,0 13.126,-5.881 13.126,-13.126 V 113.49 h -26.253 z"
   id="path136" />
	<path
   style="fill:#aeb1b3"
   d="m 39.379,78.758 h 201.27 V 96.26 H 39.379 Z"
   id="path138" />
	<path
   style="fill:#d1d5d7"
   d="m 39.379,35.003 h 201.27 c 9.661,0 17.502,7.841 17.502,17.502 V 78.758 H 21.877 V 52.505 c 0,-9.661 7.841,-17.502 17.502,-17.502 z"
   id="path140" />
</g><g
         id="g144">
</g><g
         id="g146">
</g><g
         id="g148">
</g><g
         id="g150">
</g><g
         id="g152">
</g><g
         id="g154">
</g><g
         id="g156">
</g><g
         id="g158">
</g><g
         id="g160">
</g><g
         id="g162">
</g><g
         id="g164">
</g><g
         id="g166">
</g><g
         id="g168">
</g><g
         id="g170">
</g><g
         id="g172">
</g></g></g></svg>
