<?xml version="1.0" encoding="UTF-8" standalone="no"?>
<!-- Generator: Adobe Illustrator 16.0.0, SVG Export Plug-In . SVG Version: 6.00 Build 0)  -->

<svg
   version="1.1"
   id="Capa_1"
   x="0px"
   y="0px"
   width="1.8229982"
   height="2.1326613"
   viewBox="0 0 80.333999 80.336001"
   xml:space="preserve"
   sodipodi:docname="tresh-red.svg"
   xmlns:inkscape="http://www.inkscape.org/namespaces/inkscape"
   xmlns:sodipodi="http://sodipodi.sourceforge.net/DTD/sodipodi-0.dtd"
   xmlns="http://www.w3.org/2000/svg"
   xmlns:svg="http://www.w3.org/2000/svg"><defs
   id="defs106" /><sodipodi:namedview
   id="namedview104"
   pagecolor="#ffffff"
   bordercolor="#666666"
   borderopacity="1.0"
   inkscape:showpageshadow="2"
   inkscape:pageopacity="0.0"
   inkscape:pagecheckerboard="0"
   inkscape:deskcolor="#d1d1d1"
   showgrid="false" />
<g
   id="g71"
   style="fill:#780000;fill-opacity:1"
   transform="translate(-3.0009999)">
	<path
   d="M 36.335,5.668 H 28.168 V 1.5 c 0,-0.828 -0.672,-1.5 -1.5,-1.5 h -12 c -0.828,0 -1.5,0.672 -1.5,1.5 V 5.668 H 5.001 c -1.104,0 -2,0.896 -2,2 0,1.104 0.896,2 2,2 h 2.001 v 29.168 c 0,1.381 1.119,2.5 2.5,2.5 h 22.332 c 1.381,0 2.5,-1.119 2.5,-2.5 V 9.668 h 2.001 c 1.104,0 2,-0.896 2,-2 0,-1.104 -0.897,-2 -2,-2 z M 16.168,3 h 9 v 2.668 h -9 z"
   id="path69"
   style="fill:#780000;fill-opacity:1" />
</g>















</svg>
